<svg class="svg-icon" style="width: 1em; height: 1em;vertical-align: middle;fill: currentColor;overflow: hidden;" viewBox="0 0 1024 1024" version="1.1" xmlns="http://www.w3.org/2000/svg">
    <path fill="currentColor" d="M657.152 896v-297.216h99.541333l14.890667-115.541333h-114.432V409.514667c0-33.450667 9.301333-56.277333 57.258667-56.277334h61.184V249.898667a818.773333 818.773333 0 0 0-89.173334-4.565334c-88.192 0-148.565333 53.845333-148.565333 152.746667v85.162667h-99.754667v115.541333h99.754667V896H170.666667a42.666667 42.666667 0 0 1-42.666667-42.666667V170.666667a42.666667 42.666667 0 0 1 42.666667-42.666667h682.666666a42.666667 42.666667 0 0 1 42.666667 42.666667v682.666666a42.666667 42.666667 0 0 1-42.666667 42.666667h-196.181333z"  />
</svg>