<svg class="svg-icon" style="width: 1em; height: 1em;vertical-align: middle;fill: currentColor;overflow: hidden;" viewBox="0 0 1024 1024" version="1.1" xmlns="http://www.w3.org/2000/svg"><path d="M512 384a128 128 0 1 0 0 256 128 128 0 0 0 0-256z m0-85.333333a213.333333 213.333333 0 1 1 0 426.666666 213.333333 213.333333 0 0 1 0-426.666666z m277.333333-10.666667a53.333333 53.333333 0 0 1-106.666666 0 53.333333 53.333333 0 0 1 106.666666 0zM512 170.666667c-105.557333 0-122.794667 0.298667-171.904 2.474666-33.450667 1.578667-55.893333 6.058667-76.714667 14.165334a123.136 123.136 0 0 0-46.08 29.994666 123.306667 123.306667 0 0 0-30.037333 46.08c-8.106667 20.906667-12.586667 43.306667-14.122667 76.714667C170.922667 387.2 170.666667 403.669333 170.666667 512c0 105.557333 0.298667 122.794667 2.474666 171.904 1.578667 33.408 6.058667 55.893333 14.122667 76.672 7.253333 18.56 15.786667 31.914667 29.952 46.08 14.378667 14.336 27.733333 22.912 46.08 29.994667 21.077333 8.149333 43.52 12.672 76.8 14.208C387.2 853.077333 403.669333 853.333333 512 853.333333c105.557333 0 122.794667-0.298667 171.904-2.474666 33.365333-1.578667 55.850667-6.058667 76.672-14.122667a124.586667 124.586667 0 0 0 46.08-29.952c14.378667-14.378667 22.954667-27.733333 30.037333-46.08 8.106667-21.034667 12.629333-43.52 14.165334-76.8 2.218667-47.104 2.474667-63.573333 2.474666-171.904 0-105.557333-0.298667-122.794667-2.474666-171.904-1.578667-33.365333-6.058667-55.893333-14.165334-76.714667a124.202667 124.202667 0 0 0-29.994666-46.08 123.050667 123.050667 0 0 0-46.08-30.037333c-20.906667-8.106667-43.349333-12.586667-76.714667-14.122667C636.8 170.922667 620.330667 170.666667 512 170.666667z m0-85.333334c115.925333 0 130.389333 0.426667 175.872 2.56 45.44 2.133333 76.373333 9.258667 103.594667 19.84 28.16 10.837333 51.882667 25.514667 75.605333 49.194667a209.408 209.408 0 0 1 49.194667 75.605333c10.538667 27.178667 17.706667 58.154667 19.84 103.594667 2.005333 45.482667 2.56 59.946667 2.56 175.872 0 115.925333-0.426667 130.389333-2.56 175.872-2.133333 45.44-9.301333 76.373333-19.84 103.594667a208.341333 208.341333 0 0 1-49.194667 75.605333 209.706667 209.706667 0 0 1-75.605333 49.194667c-27.178667 10.538667-58.154667 17.706667-103.594667 19.84-45.482667 2.005333-59.946667 2.56-175.872 2.56-115.925333 0-130.389333-0.426667-175.872-2.56-45.44-2.133333-76.373333-9.301333-103.594667-19.84a208.64 208.64 0 0 1-75.605333-49.194667 209.237333 209.237333 0 0 1-49.194667-75.605333c-10.581333-27.178667-17.706667-58.154667-19.84-103.594667C85.888 642.389333 85.333333 627.925333 85.333333 512c0-115.925333 0.426667-130.389333 2.56-175.872 2.133333-45.482667 9.258667-76.373333 19.84-103.594667a208.213333 208.213333 0 0 1 49.194667-75.605333A208.938667 208.938667 0 0 1 232.533333 107.733333c27.221333-10.581333 58.112-17.706667 103.594667-19.84C381.610667 85.888 396.074667 85.333333 512 85.333333z"  /></svg>