<svg class="svg-icon" style="width: 1em; height: 1em;vertical-align: middle;fill: currentColor;overflow: hidden;" viewBox="0 0 1024 1024" version="1.1" xmlns="http://www.w3.org/2000/svg"><path d="M782.293333 782.464H668.586667v-178.218667c0-42.496-0.853333-97.194667-59.306667-97.194666-59.264 0-68.309333 46.250667-68.309333 94.08v181.333333h-113.749334V416h109.226667v49.92h1.493333c15.274667-28.757333 52.394667-59.178667 107.861334-59.178667 115.2 0 136.533333 75.861333 136.533333 174.549334v201.173333zM298.794667 365.866667a65.962667 65.962667 0 0 1-66.048-66.090667 66.048 66.048 0 1 1 66.005333 66.090667z m57.002666 416.597333H241.749333V416H355.84v366.464zM839.253333 128H184.704C153.301333 128 128 152.746667 128 183.338667v657.322666C128 871.253333 153.344 896 184.661333 896h654.421334C870.4 896 896 871.253333 896 840.661333V183.338667C896 152.746667 870.4 128 839.082667 128h0.128z"  /></svg>